<mxfile host="www.draw.io" modified="2020-02-13T23:24:09.455Z" agent="Mozilla/5.0 (Macintosh; Intel Mac OS X 10_15_3) AppleWebKit/537.36 (KHTML, like Gecko) Chrome/80.0.3987.87 Safari/537.36" etag="LOBnrdJqWIRduOEAQRzl" version="12.7.0" type="github">
  <diagram name="Page-1" id="7e0a89b8-554c-2b80-1dc8-d5c74ca68de4">
    <mxGraphModel dx="1186" dy="724" grid="1" gridSize="10" guides="1" tooltips="1" connect="1" arrows="1" fold="1" page="1" pageScale="1" pageWidth="1100" pageHeight="850" background="#ffffff" math="0" shadow="0">
      <root>
        <mxCell id="0"/>
        <mxCell id="1" parent="0"/>
        <mxCell id="dqoyC9YQfbvekCFBguCb-6" value="" style="endArrow=none;html=1;strokeWidth=10;" edge="1" parent="1">
          <mxGeometry width="50" height="50" relative="1" as="geometry">
            <mxPoint x="930" y="110" as="sourcePoint"/>
            <mxPoint x="680" y="110" as="targetPoint"/>
          </mxGeometry>
        </mxCell>
        <mxCell id="dqoyC9YQfbvekCFBguCb-2" value="Dish" style="ellipse;whiteSpace=wrap;html=1;fillColor=#bac8d3;strokeColor=#23445d;" vertex="1" parent="1">
          <mxGeometry x="730" y="30" width="160" height="120" as="geometry"/>
        </mxCell>
        <mxCell id="dqoyC9YQfbvekCFBguCb-3" value="" style="ellipse;whiteSpace=wrap;html=1;aspect=fixed;" vertex="1" parent="1">
          <mxGeometry x="795" y="110" width="30" height="30" as="geometry"/>
        </mxCell>
        <mxCell id="dqoyC9YQfbvekCFBguCb-22" style="edgeStyle=orthogonalEdgeStyle;rounded=0;orthogonalLoop=1;jettySize=auto;html=1;entryX=0.5;entryY=0;entryDx=0;entryDy=0;entryPerimeter=0;startArrow=none;startFill=0;strokeWidth=2;" edge="1" parent="1" source="dqoyC9YQfbvekCFBguCb-4" target="dqoyC9YQfbvekCFBguCb-21">
          <mxGeometry relative="1" as="geometry"/>
        </mxCell>
        <mxCell id="dqoyC9YQfbvekCFBguCb-30" style="edgeStyle=orthogonalEdgeStyle;rounded=0;orthogonalLoop=1;jettySize=auto;html=1;exitX=0.5;exitY=0;exitDx=0;exitDy=0;entryX=0.5;entryY=1;entryDx=0;entryDy=0;startArrow=classic;startFill=1;strokeWidth=2;" edge="1" parent="1" source="dqoyC9YQfbvekCFBguCb-4" target="dqoyC9YQfbvekCFBguCb-3">
          <mxGeometry relative="1" as="geometry"/>
        </mxCell>
        <mxCell id="dqoyC9YQfbvekCFBguCb-4" value="RF Power inserter" style="rounded=1;whiteSpace=wrap;html=1;fillColor=#b0e3e6;strokeColor=#0e8088;" vertex="1" parent="1">
          <mxGeometry x="440" y="185" width="120" height="60" as="geometry"/>
        </mxCell>
        <mxCell id="dqoyC9YQfbvekCFBguCb-9" value="" style="endArrow=none;html=1;strokeWidth=10;fillColor=#fad9d5;strokeColor=#ae4132;" edge="1" parent="1">
          <mxGeometry width="50" height="50" relative="1" as="geometry">
            <mxPoint x="690" y="190" as="sourcePoint"/>
            <mxPoint x="690" y="100" as="targetPoint"/>
          </mxGeometry>
        </mxCell>
        <mxCell id="dqoyC9YQfbvekCFBguCb-27" style="edgeStyle=orthogonalEdgeStyle;rounded=0;orthogonalLoop=1;jettySize=auto;html=1;exitX=0;exitY=0.5;exitDx=0;exitDy=0;entryX=1;entryY=0.25;entryDx=0;entryDy=0;startArrow=classic;startFill=1;strokeWidth=2;" edge="1" parent="1" source="dqoyC9YQfbvekCFBguCb-7" target="dqoyC9YQfbvekCFBguCb-25">
          <mxGeometry relative="1" as="geometry"/>
        </mxCell>
        <mxCell id="dqoyC9YQfbvekCFBguCb-7" value="MTR1" style="rounded=1;whiteSpace=wrap;html=1;fillColor=#b1ddf0;strokeColor=#10739e;" vertex="1" parent="1">
          <mxGeometry x="630" y="90" width="50" height="45" as="geometry"/>
        </mxCell>
        <mxCell id="dqoyC9YQfbvekCFBguCb-10" value="" style="endArrow=none;html=1;strokeWidth=10;fillColor=#fad9d5;strokeColor=#ae4132;" edge="1" parent="1">
          <mxGeometry width="50" height="50" relative="1" as="geometry">
            <mxPoint x="930" y="190" as="sourcePoint"/>
            <mxPoint x="930" y="100" as="targetPoint"/>
          </mxGeometry>
        </mxCell>
        <mxCell id="dqoyC9YQfbvekCFBguCb-11" value="" style="endArrow=none;html=1;strokeWidth=10;fillColor=#fad9d5;strokeColor=#ae4132;" edge="1" parent="1">
          <mxGeometry width="50" height="50" relative="1" as="geometry">
            <mxPoint x="930" y="190" as="sourcePoint"/>
            <mxPoint x="690" y="190" as="targetPoint"/>
          </mxGeometry>
        </mxCell>
        <mxCell id="dqoyC9YQfbvekCFBguCb-12" value="" style="endArrow=none;html=1;strokeWidth=30;" edge="1" parent="1">
          <mxGeometry width="50" height="50" relative="1" as="geometry">
            <mxPoint x="810" y="240" as="sourcePoint"/>
            <mxPoint x="810" y="180" as="targetPoint"/>
          </mxGeometry>
        </mxCell>
        <mxCell id="dqoyC9YQfbvekCFBguCb-13" value="" style="endArrow=none;html=1;strokeWidth=10;fillColor=#fad9d5;strokeColor=#ae4132;" edge="1" parent="1">
          <mxGeometry width="50" height="50" relative="1" as="geometry">
            <mxPoint x="930" y="230" as="sourcePoint"/>
            <mxPoint x="690" y="230" as="targetPoint"/>
          </mxGeometry>
        </mxCell>
        <mxCell id="dqoyC9YQfbvekCFBguCb-29" style="edgeStyle=orthogonalEdgeStyle;rounded=0;orthogonalLoop=1;jettySize=auto;html=1;entryX=1;entryY=0.75;entryDx=0;entryDy=0;startArrow=classic;startFill=1;strokeWidth=2;" edge="1" parent="1" source="dqoyC9YQfbvekCFBguCb-14" target="dqoyC9YQfbvekCFBguCb-25">
          <mxGeometry relative="1" as="geometry"/>
        </mxCell>
        <mxCell id="dqoyC9YQfbvekCFBguCb-14" value="MTR2" style="rounded=1;whiteSpace=wrap;html=1;fillColor=#b1ddf0;strokeColor=#10739e;" vertex="1" parent="1">
          <mxGeometry x="785" y="240" width="50" height="45" as="geometry"/>
        </mxCell>
        <mxCell id="dqoyC9YQfbvekCFBguCb-15" value="" style="endArrow=none;html=1;strokeWidth=10;fillColor=#fad9d5;strokeColor=#ae4132;" edge="1" parent="1">
          <mxGeometry width="50" height="50" relative="1" as="geometry">
            <mxPoint x="690" y="300" as="sourcePoint"/>
            <mxPoint x="690" y="230" as="targetPoint"/>
          </mxGeometry>
        </mxCell>
        <mxCell id="dqoyC9YQfbvekCFBguCb-16" value="" style="endArrow=none;html=1;strokeWidth=10;fillColor=#fad9d5;strokeColor=#ae4132;" edge="1" parent="1">
          <mxGeometry width="50" height="50" relative="1" as="geometry">
            <mxPoint x="930" y="300" as="sourcePoint"/>
            <mxPoint x="930" y="230" as="targetPoint"/>
          </mxGeometry>
        </mxCell>
        <mxCell id="dqoyC9YQfbvekCFBguCb-17" value="" style="endArrow=none;html=1;strokeWidth=10;fillColor=#fad9d5;strokeColor=#ae4132;" edge="1" parent="1">
          <mxGeometry width="50" height="50" relative="1" as="geometry">
            <mxPoint x="930" y="300" as="sourcePoint"/>
            <mxPoint x="690" y="300" as="targetPoint"/>
          </mxGeometry>
        </mxCell>
        <mxCell id="dqoyC9YQfbvekCFBguCb-18" value="" style="verticalLabelPosition=bottom;shadow=0;dashed=0;align=center;html=1;verticalAlign=top;shape=mxgraph.electrical.rot_mech.verticalLabelPosition=bottom;shadow=0;dashed=0;align=center;fillColor=#ffe6cc;html=1;verticalAlign=top;strokeWidth=2;shape=mxgraph.electrical.rot_mech.rotation;strokeColor=#d79b00;" vertex="1" parent="1">
          <mxGeometry x="775" y="200" width="69" height="20" as="geometry"/>
        </mxCell>
        <mxCell id="dqoyC9YQfbvekCFBguCb-19" value="" style="verticalLabelPosition=bottom;shadow=0;dashed=0;align=center;html=1;verticalAlign=top;shape=mxgraph.electrical.rot_mech.verticalLabelPosition=bottom;shadow=0;dashed=0;align=center;fillColor=#ffe6cc;html=1;verticalAlign=top;strokeWidth=2;shape=mxgraph.electrical.rot_mech.rotation;strokeColor=#d79b00;rotation=-90;" vertex="1" parent="1">
          <mxGeometry x="680" y="102.5" width="69" height="20" as="geometry"/>
        </mxCell>
        <mxCell id="dqoyC9YQfbvekCFBguCb-21" value="HackRF one&lt;br&gt;Software Defined Radio" style="verticalLabelPosition=bottom;shadow=0;dashed=0;align=center;html=1;verticalAlign=top;shape=mxgraph.electrical.abstract.filter;strokeWidth=2;fillColor=#d5e8d4;strokeColor=#82b366;" vertex="1" parent="1">
          <mxGeometry x="474" y="320" width="52" height="46" as="geometry"/>
        </mxCell>
        <mxCell id="dqoyC9YQfbvekCFBguCb-24" style="edgeStyle=orthogonalEdgeStyle;rounded=0;orthogonalLoop=1;jettySize=auto;html=1;entryX=0;entryY=0.5;entryDx=0;entryDy=0;startArrow=none;startFill=0;strokeWidth=2;" edge="1" parent="1" source="dqoyC9YQfbvekCFBguCb-23" target="dqoyC9YQfbvekCFBguCb-4">
          <mxGeometry relative="1" as="geometry"/>
        </mxCell>
        <mxCell id="dqoyC9YQfbvekCFBguCb-23" value="LNB9P-LIT" style="pointerEvents=1;verticalLabelPosition=bottom;shadow=0;dashed=0;align=center;html=1;verticalAlign=top;shape=mxgraph.electrical.signal_sources.dc_source_2;strokeWidth=2;fillColor=#f8cecc;strokeColor=#b85450;" vertex="1" parent="1">
          <mxGeometry x="290" y="185" width="60" height="60" as="geometry"/>
        </mxCell>
        <mxCell id="dqoyC9YQfbvekCFBguCb-26" style="edgeStyle=orthogonalEdgeStyle;rounded=0;orthogonalLoop=1;jettySize=auto;html=1;entryX=0;entryY=0.5;entryDx=0;entryDy=0;entryPerimeter=0;startArrow=none;startFill=0;strokeWidth=2;" edge="1" parent="1" source="dqoyC9YQfbvekCFBguCb-25" target="dqoyC9YQfbvekCFBguCb-23">
          <mxGeometry relative="1" as="geometry"/>
        </mxCell>
        <mxCell id="dqoyC9YQfbvekCFBguCb-25" value="Arduino Due" style="rounded=1;whiteSpace=wrap;html=1;strokeWidth=2;fillColor=#fff2cc;strokeColor=#d6b656;" vertex="1" parent="1">
          <mxGeometry x="170" y="20" width="200" height="100" as="geometry"/>
        </mxCell>
      </root>
    </mxGraphModel>
  </diagram>
</mxfile>
